<svg width="16" height="20" viewBox="0 0 16 20" fill="none" xmlns="http://www.w3.org/2000/svg">
<path d="M5.52136 0.106979C6.85304 0.410081 7.66992 1.11129 8.08869 2.41923C8.70625 2.46363 9.21848 2.72284 9.60523 3.23972C11.5493 2.24986 13.6989 3.68378 13.577 5.83751C15.2 6.04302 16.4821 7.46248 15.8237 9.14787C15.0812 11.0496 12.898 10.6923 11.255 10.6923C11.255 11.3656 11.255 12.025 11.255 12.6973C11.6614 12.72 12.0708 12.7061 12.4772 12.7061C12.7338 12.7061 13.2807 12.8187 13.4924 12.6581C13.6813 12.5145 13.7438 12.2068 13.9581 12.0467C14.1693 11.8887 14.429 11.8035 14.6934 11.8071C15.9704 11.8247 16.369 13.6092 15.2087 14.1519C14.6857 14.3961 14.064 14.2562 13.7103 13.7935C13.4655 13.4729 13.543 13.3804 13.1056 13.3717C12.723 13.3639 12.3388 13.3748 11.9557 13.3743C11.4311 13.3737 10.6328 13.6009 10.5693 12.9214C10.5016 12.197 10.5687 11.4348 10.5687 10.7068C10.3054 10.7068 10.0586 10.7068 9.79731 10.7068C9.79731 12.4412 9.79731 14.1762 9.79731 15.9209C10.2662 16.017 10.8197 15.9374 11.2989 15.9395C11.4806 15.9405 11.8503 16.017 12.0109 15.9183C12.123 15.8492 12.1782 15.6121 12.2603 15.5089C12.7483 14.8934 13.7056 14.9006 14.1951 15.5078C14.6929 16.1254 14.4538 17.0776 13.7309 17.3993C12.9982 17.7251 12.3171 17.2846 12.03 16.6087C11.2963 16.6087 10.5626 16.6097 9.82932 16.6087C9.58044 16.6082 9.31297 16.6593 9.15806 16.4316C8.99541 16.1915 9.11624 15.6364 9.11624 15.3534C9.11572 13.8028 9.11624 12.2522 9.11624 10.7016C8.8498 10.7016 8.60298 10.7016 8.33396 10.7016C8.33396 12.6751 8.3355 14.6491 8.33189 16.6227C8.33137 16.8245 8.25702 17.1963 8.34532 17.3822C8.42587 17.5516 8.63706 17.5919 8.77647 17.7034C9.05324 17.9249 9.21693 18.2652 9.22674 18.6189C9.24688 19.3309 8.64274 19.9304 7.9281 19.8912C7.2083 19.8514 6.67284 19.1859 6.77559 18.4748C6.82774 18.1134 7.03222 17.8175 7.33274 17.6192C7.72775 17.3595 7.65908 17.2077 7.65805 16.7192C7.65495 14.7142 7.6565 12.7097 7.6565 10.7047C7.39367 10.7047 7.14634 10.7047 6.87422 10.7047C6.87422 11.6145 6.87422 12.5248 6.87422 13.4347C6.87422 14.3192 6.97336 15.2693 6.87422 16.1476C6.83446 16.5013 6.75287 16.5684 6.41517 16.6087C5.94529 16.664 5.4248 16.6103 4.95182 16.6092C4.61567 16.6087 4.1241 16.4992 3.89122 16.7523C3.67074 16.9918 3.59948 17.2438 3.27004 17.3962C1.88053 18.038 0.827676 15.9405 2.16143 15.1949C2.77124 14.8541 3.45438 15.1077 3.82771 15.6555C4.09828 16.0526 4.40861 15.9385 4.88469 15.9395C5.28693 15.94 5.81259 16.0325 6.19262 15.9178C6.19262 14.1844 6.19262 12.4495 6.19262 10.7031C5.93858 10.7031 5.69124 10.7031 5.42119 10.7031C5.42119 11.44 5.52239 12.2579 5.41809 12.9865C5.33341 13.5772 4.55526 13.3732 4.10138 13.3737C3.69759 13.3743 3.29276 13.3629 2.88949 13.3717C2.51358 13.3794 2.52288 13.4409 2.32459 13.728C1.99464 14.2051 1.38121 14.4095 0.836454 14.1829C-0.321218 13.7006 -0.0656213 11.9419 1.185 11.8118C1.46589 11.7823 1.75196 11.8572 1.98586 12.0142C2.23062 12.1784 2.30188 12.5016 2.51358 12.655C2.7067 12.7949 3.22461 12.7066 3.46574 12.7071C3.88864 12.7082 4.31102 12.7071 4.73392 12.7071C4.73392 12.0384 4.73392 11.379 4.73392 10.6923C3.27779 10.6923 1.42149 11.0383 0.445572 9.67043C0.0438464 9.10708 -0.0909227 8.38624 0.0603699 7.7124C0.140922 7.35353 0.306156 7.01997 0.542131 6.73752C0.806506 6.42099 0.856592 6.42151 0.780171 6.00894C0.655213 5.33613 0.773975 4.65299 1.18138 4.09377C1.3936 3.80255 1.66469 3.58206 1.97296 3.39875C2.30446 3.20151 2.24404 3.08894 2.28535 2.71252C2.35609 2.06655 2.64732 1.45674 3.10171 0.993048C3.61807 0.465848 4.19639 0.332627 4.86404 0.106979C5.08349 0.106979 5.30242 0.106979 5.52136 0.106979Z" fill="white"/>
</svg>
