<svg width="24" height="24" viewBox="0 0 24 24" fill="none" xmlns="http://www.w3.org/2000/svg">
<path d="M17.1279 10.4431C15.1555 10.0522 13.5718 10.6312 12.6824 12.4542C11.8055 14.2523 12.2842 15.8618 13.7823 17.198C13.7087 17.198 13.6467 17.198 13.5851 17.198C11.2434 17.198 8.90202 17.198 6.56026 17.1989C6.48579 17.1989 6.40787 17.1984 6.3377 17.2191C6.21717 17.2548 6.15045 17.3444 6.15863 17.4735C6.16724 17.6044 6.25118 17.6745 6.37386 17.6987C6.42035 17.7077 6.47029 17.7034 6.5185 17.7034C9.06431 17.7034 11.6101 17.7042 14.1555 17.6999C14.2502 17.6999 14.3445 17.6479 14.4396 17.6229C14.4758 17.6134 14.521 17.5979 14.5511 17.6108C15.3707 17.9556 16.2097 18.0262 17.0711 17.7959C17.0849 17.7921 17.1008 17.7955 17.1232 17.7955C17.1232 18.3147 17.1391 18.8304 17.118 19.3443C17.1029 19.7111 16.7908 19.9797 16.4198 19.9974C16.366 20 16.3126 20 16.2588 20C12.4616 20 8.6644 20.0004 4.86764 19.9987C4.75099 19.9987 4.62959 19.9926 4.5181 19.9616C4.22237 19.879 4.02392 19.616 4.00756 19.309C4.00412 19.2449 4.00498 19.1803 4.00498 19.1158C4.00498 15.7262 4.00498 12.3363 4.00498 8.94674C4.00498 8.87829 4.00498 8.80985 4.00498 8.72289C4.08548 8.72289 4.14876 8.72289 4.2116 8.72289C5.59729 8.72289 6.98298 8.72289 8.36867 8.72289C8.67818 8.72289 8.75092 8.651 8.75092 8.34709C8.75092 6.96657 8.75092 5.58605 8.75092 4.20553C8.75092 4.14268 8.75092 4.07983 8.75092 4.00019C8.82669 4.00019 8.88437 4.00019 8.94162 4.00019C11.3854 4.00019 13.8288 3.99976 16.2725 4.00019C16.8511 4.00019 17.1275 4.27957 17.1275 4.862C17.1275 6.66696 17.1275 8.47193 17.1275 10.2769C17.1279 10.335 17.1279 10.3936 17.1279 10.4431ZM9.89942 10.8016C10.6149 10.8016 11.3307 10.8016 12.0462 10.8016C12.3337 10.8016 13.6406 11.0031 13.6751 10.5752C13.7138 10.0948 12.3587 10.298 12.0729 10.298C11.3854 10.298 10.6979 10.2976 10.0105 10.2976C9.29332 10.2976 8.57572 10.2976 7.85856 10.2976C7.52968 10.2976 7.20123 10.2976 6.87235 10.298C6.68595 10.298 6.27658 10.2231 6.17542 10.4547C5.94296 10.9867 7.52322 10.8016 7.77289 10.8016C8.48188 10.8016 9.19087 10.8016 9.89942 10.8016ZM9.0049 14.901C8.43926 14.901 7.87362 14.9006 7.30842 14.901C7.06649 14.901 6.09965 14.7396 6.16121 15.183C6.21244 15.5515 6.99718 15.4029 7.23997 15.4029C7.79915 15.4029 8.35834 15.4029 8.91795 15.4029C9.47713 15.4029 10.0363 15.4029 10.5959 15.4029C10.8478 15.4029 11.7522 15.5717 11.8331 15.195C11.9295 14.7452 10.914 14.9019 10.7104 14.9014C10.1413 14.901 9.57313 14.901 9.0049 14.901ZM9.0359 13.0986C9.42633 13.0986 11.9287 13.3109 11.9278 12.8537C11.9269 12.4654 11.1327 12.6019 10.9214 12.6019C10.3531 12.6019 9.78449 12.6019 9.21626 12.6019C8.61791 12.6019 8.01955 12.6019 7.42163 12.6019C7.14398 12.6019 6.22922 12.4288 6.16465 12.8145C6.09018 13.2601 7.0045 13.0982 7.24083 13.0982C7.83962 13.0986 8.43754 13.0986 9.0359 13.0986ZM12.6674 8.02682C12.2989 8.02682 10.1319 7.81503 10.1314 8.26918C10.131 8.7315 12.2128 8.52229 12.5731 8.52229C13.0828 8.52229 13.5924 8.52229 14.1021 8.52229C14.3492 8.52229 15.295 8.66779 15.1865 8.21149C15.1103 7.89036 14.4323 8.02682 14.196 8.02682C13.6867 8.02682 13.177 8.02682 12.6674 8.02682ZM13.1792 6.12543C12.8692 6.12543 11.1491 5.92698 11.1573 6.37424C11.1654 6.8215 12.8305 6.62047 13.171 6.62047C13.4951 6.62047 15.3005 6.81203 15.1925 6.31871C15.1245 6.00877 14.6092 6.125 14.3957 6.125C13.9902 6.12543 13.5847 6.12543 13.1792 6.12543Z" fill="white"/>
<path d="M16.0771 17.4236C14.2222 17.4137 12.7685 15.9574 12.7784 14.1193C12.7883 12.2756 14.2613 10.8064 16.0878 10.818C17.9281 10.8296 19.3908 12.3143 19.3801 14.1593C19.3697 15.9867 17.9057 17.4331 16.0771 17.4236ZM18.8756 14.1128C18.87 12.5446 17.6182 11.3191 16.0267 11.3229C13.6036 11.329 12.3793 14.3337 14.0521 16.0616C15.7693 17.8355 18.8846 16.5988 18.8756 14.1128Z" fill="white"/>
<path d="M4.24902 8.21494C5.5568 6.88349 6.88609 5.53052 8.24251 4.14957C8.24251 5.52923 8.24251 6.8667 8.24251 8.21494C6.89427 8.21494 5.54948 8.21494 4.24902 8.21494Z" fill="white"/>
<path d="M17.2002 17.7284C17.7904 17.5674 18.2751 17.2721 18.7099 16.8472C19.2368 17.5235 20.5376 18.6883 19.7456 19.5923C19.4572 19.9212 18.978 20.0516 18.5626 19.916C18.053 19.7503 17.8696 19.2475 17.6677 18.7989C17.511 18.4528 17.3629 18.1024 17.2002 17.7284Z" fill="white"/>
<path d="M15.1595 14.9466C15.1544 14.7417 15.268 14.4809 15.5147 14.6156C15.7553 14.7469 15.627 15.146 15.9176 15.2691C16.4871 15.5106 16.7368 14.5304 16.1199 14.3608C15.6025 14.2183 15.1483 13.9919 15.1544 13.3651C15.1569 13.0948 15.2736 12.8296 15.4785 12.6509C15.5612 12.5791 15.7118 12.5395 15.7777 12.4564C15.8655 12.3453 15.8031 12.1865 15.9034 12.0814C16.1634 11.8081 16.2512 12.1955 16.3278 12.3358C16.4385 12.5395 16.6907 12.6019 16.8341 12.8076C16.9455 12.9673 17.0915 13.3216 16.9563 13.5084C16.7777 13.7555 16.5771 13.5493 16.503 13.3535C16.4169 13.1258 16.3532 12.8619 16.0347 12.9045C15.7751 12.9394 15.6227 13.2291 15.6632 13.4693C15.7463 13.9639 16.4871 13.8477 16.7815 14.2049C17.1711 14.6785 17.0174 15.3005 16.5542 15.644C16.4032 15.7559 16.392 15.7551 16.3239 15.9092C16.277 16.0159 16.3192 16.0986 16.1939 16.167C15.8134 16.3745 15.921 15.7938 15.7239 15.7125C15.3567 15.5609 15.1922 15.2665 15.1595 14.9466Z" fill="white"/>
</svg>
