<svg width="24" height="24" viewBox="0 0 24 24" fill="none" xmlns="http://www.w3.org/2000/svg">
<path d="M15.3448 20C12.1883 20 9.0321 20 5.87554 20C5.57796 19.869 5.4156 19.6574 5.41602 19.3156C5.41977 15.3005 5.4181 11.2854 5.41852 7.27027C5.41852 6.82077 5.65433 6.58537 6.10175 6.58495C6.82589 6.58412 7.54961 6.58453 8.27375 6.58453C10.5551 6.58453 12.8364 6.58495 15.1178 6.58328C15.2943 6.58328 15.4608 6.6029 15.6002 6.72268C15.7726 6.87043 15.8181 7.06284 15.8177 7.28279C15.8152 11.2666 15.8131 15.2504 15.8206 19.2342C15.821 19.6081 15.7025 19.8686 15.3448 20ZM10.7212 9.93726C10.0918 9.93726 9.462 9.93685 8.8326 9.93726C8.4265 9.93726 7.74035 9.86422 7.74577 10.4573C7.7512 11.0425 8.42358 10.9698 8.82676 10.9703C9.42443 10.9703 10.0221 10.9698 10.6198 10.9694C11.2437 10.9694 11.8677 10.9694 12.4921 10.9698C12.8961 10.9703 13.6524 11.0817 13.6803 10.4786C13.7083 9.87466 13.0334 9.93768 12.6344 9.93726C11.9967 9.93685 11.3589 9.93768 10.7212 9.93726ZM10.6999 15.0955C11.5013 15.0955 12.3022 15.0959 13.1035 15.0955C13.4462 15.0951 13.6837 14.8806 13.6799 14.5763C13.6762 14.2783 13.4408 14.065 13.1094 14.0646C11.5121 14.0638 9.91526 14.0638 8.31799 14.0646C7.97157 14.0646 7.7441 14.2741 7.74661 14.5859C7.74869 14.8902 7.97491 15.0951 8.31256 15.0951C9.10765 15.096 9.90399 15.0955 10.6999 15.0955ZM10.7028 13.0321C11.5042 13.0321 12.3051 13.0325 13.1065 13.0321C13.4404 13.0316 13.6733 12.8242 13.6795 12.5245C13.6854 12.2219 13.4454 12.0016 13.106 12.0016C11.5088 12.0012 9.91192 12.0012 8.31465 12.0016C7.9699 12.0016 7.74285 12.2128 7.74619 12.5254C7.74953 12.8292 7.97658 13.0321 8.31506 13.0325C9.11099 13.0325 9.90691 13.0321 10.7028 13.0321Z" fill="white"/>
<path d="M7.15332 5.55028C7.17043 5.02774 7.38538 4.63165 7.78313 4.33323C8.09825 4.097 8.45844 4.00059 8.85076 4.00101C10.7727 4.00309 12.6943 4.00184 14.6163 4.00184C15.4026 4.00184 16.1894 3.99642 16.9757 4.00435C17.6627 4.01144 18.2716 4.42798 18.4849 5.04443C18.5483 5.22766 18.5792 5.43133 18.5792 5.62541C18.5847 9.3592 18.5847 13.0926 18.5821 16.8264C18.5817 17.7696 17.8522 18.4695 16.9097 18.4441C16.8951 18.4437 16.8801 18.4374 16.8476 18.4295C16.8476 18.366 16.8476 18.2997 16.8476 18.2337C16.8476 14.578 16.848 10.9227 16.8471 7.26692C16.8471 6.4927 16.4448 5.88042 15.7574 5.65129C15.545 5.58033 15.3087 5.55487 15.0829 5.55404C12.5153 5.54736 9.94761 5.54987 7.37995 5.54987C7.31359 5.55028 7.24639 5.55028 7.15332 5.55028Z" fill="white"/>
</svg>
