<svg width="24" height="24" viewBox="0 0 24 24" fill="none" xmlns="http://www.w3.org/2000/svg">
<path d="M13.3574 10.0155C13.5458 10.2064 13.7569 10.4208 13.9512 10.6176C12.8455 11.7234 11.6917 12.8776 10.5688 14.0008C10.3787 13.8136 10.1643 13.6022 9.96582 13.4066C11.0949 12.2779 12.2483 11.1245 13.3574 10.0155Z" fill="white"/>
<path d="M11.4756 16.2403C12.6448 16.2403 13.8103 16.2403 14.9842 16.2403C14.9842 16.5437 14.9842 16.8479 14.9842 17.163C13.8212 17.163 12.6515 17.163 11.4756 17.163C11.4756 16.8563 11.4756 16.5529 11.4756 16.2403Z" fill="white"/>
<path d="M7.72599 9.01965C7.72599 10.1776 7.72599 11.3318 7.72599 12.4914C7.41926 12.4914 7.11964 12.4914 6.80664 12.4914C6.80664 11.3398 6.80664 10.1822 6.80664 9.01965C7.10668 9.01965 7.40965 9.01965 7.72599 9.01965Z" fill="white"/>
<path d="M7.30879 8.10196C8.44152 8.10196 9.35978 7.18371 9.35978 6.05098C9.35978 4.91826 8.44152 4 7.30879 4C6.17607 4 5.25781 4.91826 5.25781 6.05098C5.25781 7.18371 6.17607 8.10196 7.30879 8.10196Z" fill="white"/>
<path d="M15.8361 10.2416C16.9689 10.2416 17.8871 9.3233 17.8871 8.19057C17.8871 7.05784 16.9689 6.13959 15.8361 6.13959C14.7034 6.13959 13.7852 7.05784 13.7852 8.19057C13.7852 9.3233 14.7034 10.2416 15.8361 10.2416Z" fill="white"/>
<path d="M17.9787 18.7568C19.1114 18.7568 20.0297 17.8385 20.0297 16.7058C20.0297 15.5731 19.1114 14.6548 17.9787 14.6548C16.846 14.6548 15.9277 15.5731 15.9277 16.7058C15.9277 17.8385 16.846 18.7568 17.9787 18.7568Z" fill="white"/>
<path d="M7.26489 20C9.08423 20 10.5591 18.5251 10.5591 16.7058C10.5591 14.8865 9.08423 13.4116 7.26489 13.4116C5.44556 13.4116 3.9707 14.8865 3.9707 16.7058C3.9707 18.5251 5.44556 20 7.26489 20Z" fill="white"/>
</svg>
