<svg width="24" height="24" viewBox="0 0 24 24" fill="none" xmlns="http://www.w3.org/2000/svg">
<path d="M11.9833 20C10.7935 19.9765 9.58474 19.925 8.43499 19.59C7.97979 19.4572 7.4221 19.2803 7.04992 18.9762C6.59758 18.6069 6.77279 18.067 6.8478 17.5665C7.15528 15.5121 7.17303 13.3735 9.04136 12.0698C10.5507 11.0162 13.0334 10.9584 14.6212 11.8665C15.401 12.3125 16.0354 13.0059 16.4196 13.8173C16.8691 14.7666 16.8914 15.8637 17.042 16.8869C17.1153 17.3833 17.3896 18.1259 17.2195 18.6189C17.0552 19.0953 16.3246 19.3066 15.9037 19.4669C14.663 19.9399 13.2956 19.9771 11.9833 20Z" fill="white"/>
<path d="M11.9799 10.8468C8.9687 10.8284 7.44563 7.04712 9.61342 4.95434C11.8179 2.82606 15.4509 4.51059 15.4245 7.51606C15.4085 9.34088 13.8345 10.8628 11.9799 10.8468Z" fill="white"/>
<path d="M16.0791 11.7972C17.2134 11.1353 18.6494 11.1439 19.7883 11.7909C21.1138 12.5439 21.7104 14.0108 21.8135 15.4818C21.8696 16.2828 20.9563 16.7351 20.2944 16.935C19.8266 17.0764 19.3348 17.1245 18.8515 17.1778C18.3568 17.2321 18.0568 17.4154 17.9623 16.8594C17.8037 15.9244 17.7625 14.9487 17.4819 14.0377C17.2157 13.172 16.7032 12.4849 16.0906 11.8333C16.0865 11.8293 16.0865 11.8213 16.0791 11.7972Z" fill="white"/>
<path d="M7.89655 11.7875C7.17052 12.7156 6.57217 13.5396 6.34028 14.7208C6.22805 15.2922 6.17652 15.8769 6.08949 16.4529C6.06372 16.6246 6.07574 17.0873 5.93489 17.2041C5.79232 17.322 5.38979 17.2264 5.2163 17.2127C4.30132 17.1382 3.05309 16.9407 2.41581 16.1941C2.10375 15.8276 2.16846 15.4606 2.26007 15.0231C2.37458 14.4757 2.44387 13.9049 2.69179 13.3964C3.63541 11.4645 6.1101 10.7007 7.89655 11.7875Z" fill="white"/>
<path d="M6.10098 10.8462C4.79492 10.8514 3.67038 9.86996 3.553 8.6578C3.41787 7.26014 4.27731 6.09207 5.61829 5.85216C6.26588 5.7365 6.86308 5.86991 7.4202 6.21289C7.5267 6.27816 7.55877 6.35202 7.533 6.4757C7.29767 7.60368 7.46601 8.67212 8.03229 9.67471C8.0907 9.77777 8.06722 9.83789 8.00137 9.91691C7.49579 10.5238 6.84877 10.8313 6.10098 10.8462Z" fill="white"/>
<path d="M16.5833 7.40271C16.545 7.10669 16.5175 6.80837 16.4631 6.51521C16.4339 6.35718 16.4728 6.27244 16.6102 6.18827C17.4806 5.65577 18.5793 5.69012 19.4119 6.28675C20.237 6.87823 20.6263 7.92376 20.3904 8.9149C20.1551 9.9026 19.3374 10.6739 18.3308 10.8147C17.4101 10.9435 16.6308 10.6561 16.0136 9.94726C15.9208 9.84076 15.9071 9.76289 15.981 9.63348C16.3732 8.9441 16.5621 8.1986 16.5833 7.40271Z" fill="white"/>
</svg>
